<svg xmlns="http://www.w3.org/2000/svg" viewBox="0 0 32 32">
  <rect width="32" height="32" fill="#0a0a0c"/>
  <rect x="14" y="8" width="4" height="1" fill="#b22234"/>
  <rect x="12" y="9" width="2" height="1" fill="#b22234"/>
  <rect x="18" y="9" width="2" height="1" fill="#b22234"/>
  <rect x="11" y="10" width="1" height="2" fill="#b22234"/>
  <rect x="20" y="10" width="1" height="2" fill="#b22234"/>
  <rect x="11" y="12" width="1" height="2" fill="#b22234"/>
  <rect x="20" y="12" width="1" height="1" fill="#b22234"/>
  <rect x="12" y="13" width="2" height="1" fill="#b22234"/>
  <rect x="18" y="12" width="2" height="1" fill="#b22234"/>
  <rect x="14" y="13" width="4" height="1" fill="#b22234"/>
  <rect x="14" y="10" width="4" height="1" fill="#b22234"/>
  <rect x="13" y="11" width="1" height="1" fill="#b22234"/>
  <rect x="18" y="11" width="1" height="1" fill="#b22234"/>
  <rect x="14" y="12" width="4" height="1" fill="#b22234"/>
  <rect x="15" y="4" width="2" height="1" fill="#b22234"/>
  <rect x="15" y="5" width="2" height="1" fill="#b22234"/>
  <rect x="14" y="6" width="4" height="1" fill="#b22234"/>
  <rect x="14" y="7" width="4" height="1" fill="#b22234"/>
  <rect x="15" y="14" width="2" height="1" fill="#b22234"/>
  <rect x="15" y="15" width="2" height="1" fill="#b22234"/>
  <rect x="15" y="16" width="2" height="1" fill="#b22234"/>
  <rect x="14" y="17" width="4" height="1" fill="#b22234"/>
  <rect x="13" y="18" width="2" height="1" fill="#b22234"/>
  <rect x="17" y="18" width="2" height="1" fill="#b22234"/>
</svg>
